<svg xmlns="http://www.w3.org/2000/svg" viewBox="0 0 400 280">
  <defs><linearGradient id="sky5" x1="0" y1="0" x2="0" y2="1"><stop offset="0%" stop-color="#A8C8DC"/><stop offset="100%" stop-color="#D0E8F0"/></linearGradient></defs>
  <rect width="400" height="280" fill="url(#sky5)"/>
  <rect x="0" y="200" width="400" height="80" fill="#7A9A5A"/>
  <!-- Typical North German brick buildings -->
  <!-- Left house -->
  <rect x="20" y="130" width="90" height="90" fill="#C8603A"/>
  <polygon points="15,130 65,85 115,130" fill="#8B3A1A"/>
  <!-- Stepped gable left -->
  <rect x="15" y="105" width="6" height="26" fill="#C8603A"/>
  <rect x="21" y="98" width="6" height="33" fill="#C8603A"/>
  <rect x="27" y="93" width="6" height="38" fill="#C8603A"/>
  <rect x="109" y="105" width="6" height="26" fill="#C8603A"/>
  <rect x="103" y="98" width="6" height="33" fill="#C8603A"/>
  <rect x="97" y="93" width="6" height="38" fill="#C8603A"/>
  <!-- Windows left -->
  <rect x="35" y="148" width="22" height="28" fill="#4A7A8A" rx="2"/>
  <rect x="73" y="148" width="22" height="28" fill="#4A7A8A" rx="2"/>
  <rect x="35" y="185" width="22" height="25" fill="#4A7A8A" rx="2"/>
  <!-- Door left -->
  <rect x="70" y="192" width="20" height="28" fill="#3A2A1A" rx="3"/>
  <!-- Center: Rathaus / Town hall -->
  <rect x="135" y="110" width="130" height="110" fill="#D4C49A"/>
  <polygon points="130,110 200,65 270,110" fill="#A08060"/>
  <rect x="183" y="148" width="34" height="72" fill="#C0A870"/>
  <!-- Tower/spire on Rathaus -->
  <rect x="192" y="65" width="16" height="50" fill="#8B6914"/>
  <polygon points="188,65 200,40 212,65" fill="#6B4A0E"/>
  <!-- Windows center -->
  <rect x="145" y="128" width="20" height="28" fill="#2C4A3E" rx="2"/>
  <rect x="235" y="128" width="20" height="28" fill="#2C4A3E" rx="2"/>
  <rect x="145" y="168" width="20" height="24" fill="#2C4A3E" rx="2"/>
  <rect x="235" y="168" width="20" height="24" fill="#2C4A3E" rx="2"/>
  <!-- Right house -->
  <rect x="290" y="138" width="90" height="82" fill="#B85A30"/>
  <polygon points="285,138 335,95 385,138" fill="#7A3A10"/>
  <!-- Stepped gable right -->
  <rect x="285" y="113" width="6" height="26" fill="#B85A30"/>
  <rect x="291" y="106" width="6" height="33" fill="#B85A30"/>
  <rect x="379" y="113" width="6" height="26" fill="#B85A30"/>
  <rect x="373" y="106" width="6" height="33" fill="#B85A30"/>
  <!-- Windows right -->
  <rect x="300" y="155" width="20" height="26" fill="#4A7A8A" rx="2"/>
  <rect x="335" y="155" width="20" height="26" fill="#4A7A8A" rx="2"/>
  <!-- Street -->
  <rect x="0" y="215" width="400" height="65" fill="#C8B89A"/>
  <rect x="0" y="218" width="400" height="6" fill="#A89870"/>
  <rect x="0" y="275" width="400" height="5" fill="#A89870"/>
  <!-- Cobble hints -->
  <line x1="0" y1="235" x2="400" y2="235" stroke="#B8A880" stroke-width="1" opacity="0.5"/>
  <line x1="0" y1="252" x2="400" y2="252" stroke="#B8A880" stroke-width="1" opacity="0.5"/>
  <!-- Label -->
  <rect x="130" y="252" width="140" height="20" fill="#2C4A3E" rx="4" opacity="0.8"/>
  <text x="200" y="266" text-anchor="middle" fill="#F5D98B" font-size="11" font-family="Georgia,serif">Friesoythe</text>
</svg>