<svg xmlns="http://www.w3.org/2000/svg" viewBox="0 0 400 280">
  <defs><linearGradient id="sky1" x1="0" y1="0" x2="0" y2="1"><stop offset="0%" stop-color="#87CEEB"/><stop offset="100%" stop-color="#C8E8F0"/></linearGradient></defs>
  <rect width="400" height="280" fill="url(#sky1)"/>
  <rect x="0" y="200" width="400" height="80" fill="#8FBC6A"/>
  <rect x="0" y="195" width="400" height="12" fill="#6B9B4A"/>
  <!-- Kerk toren links -->
  <rect x="120" y="80" width="60" height="130" fill="#9B8B6E"/>
  <polygon points="120,80 150,20 180,80" fill="#6B5C3E"/>
  <rect x="138" y="110" width="24" height="36" fill="#2C4A3E" rx="12" ry="12"/>
  <circle cx="150" cy="150" r="12" fill="#C8860A" opacity="0.8"/>
  <!-- Kerk toren rechts -->
  <rect x="220" y="95" width="50" height="115" fill="#9B8B6E"/>
  <polygon points="220,95 245,40 270,95" fill="#6B5C3E"/>
  <rect x="232" y="118" width="20" height="30" fill="#2C4A3E" rx="10" ry="10"/>
  <!-- Schip/nave -->
  <rect x="100" y="160" width="200" height="50" fill="#B8A87A"/>
  <!-- Rotunda rechts -->
  <rect x="285" y="140" width="40" height="70" fill="#A09070"/>
  <ellipse cx="305" cy="140" rx="22" ry="14" fill="#8B7860"/>
  <!-- Windows -->
  <rect x="130" y="170" width="14" height="20" fill="#2C4A3E" rx="7"/>
  <rect x="155" y="170" width="14" height="20" fill="#2C4A3E" rx="7"/>
  <rect x="225" y="168" width="14" height="20" fill="#2C4A3E" rx="7"/>
  <rect x="250" y="168" width="14" height="20" fill="#2C4A3E" rx="7"/>
  <!-- Foreground -->
  <rect x="0" y="215" width="400" height="65" fill="#7A9B5A" opacity="0.6"/>
  <rect x="0" y="225" width="400" height="55" fill="#6B8A4A" opacity="0.4"/>
  <!-- Cobblestones hint -->
  <ellipse cx="200" cy="240" rx="80" ry="10" fill="#C8B89A" opacity="0.5"/>
  <!-- Trees -->
  <rect x="60" y="175" width="8" height="40" fill="#5C4A2A"/>
  <ellipse cx="64" cy="162" rx="22" ry="28" fill="#2D5A2D"/>
  <rect x="320" y="178" width="8" height="37" fill="#5C4A2A"/>
  <ellipse cx="324" cy="165" rx="20" ry="26" fill="#2D5A2D"/>
</svg>